dataset
version=1
nRows=19
nColumns=39
inDegrees=no
endheader
time	sternoclavicular_r2	sternoclavicular_r3	unrotscap_r3	unrotscap_r2	acromioclavicular_r2	acromioclavicular_r3	acromioclavicular_r1	unrothum_r1	unrothum_r3	unrothum_r2	elv_angle	shoulder_elv	shoulder1_r2	shoulder_rot	elbow_flexion	pro_sup	deviation	flexion	cmc_abduction	cmc_flexion	mp_flexion	ip_flexion	mcp2_flexion	mcp2_abduction	pm2_flexion	md2_flexion	mcp3_flexion	mcp3_abduction	pm3_flexion	md3_flexion	mcp4_flexion	mcp4_abduction	pm4_flexion	md4_flexion	mcp5_flexion	mcp5_abduction	pm5_flexion	md5_flexion
3.505000	-0.024186	-0.295888	0.121041	0.080817	0.053073	0.135891	-0.052506	0.001738	0.027307	0.090638	0.078989	0.027437	0.146525	0.146525	2.035485	1.301517	0.000000	0.000000	0.000000	0.000000	0.000000	0.000000	0.000000	0.000000	0.000000	0.000000	0.000000	0.000000	0.000000	0.000000	0.000000	0.000000	0.000000	0.000000	0.000000	0.000000	0.000000	0.000000
3.510000	-0.024196	-0.295243	0.120633	0.081017	0.053410	0.135237	-0.052479	0.001244	0.027270	0.091108	0.079329	0.027437	0.146525	0.146525	2.025344	1.301835	0.000000	0.000000	0.000000	0.000000	0.000000	0.000000	0.000000	0.000000	0.000000	0.000000	0.000000	0.000000	0.000000	0.000000	0.000000	0.000000	0.000000	0.000000	0.000000	0.000000	0.000000	0.000000
3.515000	-0.024208	-0.294593	0.120213	0.081219	0.053745	0.134595	-0.052429	0.000783	0.027235	0.091570	0.079669	0.027437	0.146525	0.146525	2.015191	1.302150	0.000000	0.000000	0.000000	0.000000	0.000000	0.000000	0.000000	0.000000	0.000000	0.000000	0.000000	0.000000	0.000000	0.000000	0.000000	0.000000	0.000000	0.000000	0.000000	0.000000	0.000000	0.000000
3.520000	-0.024220	-0.293939	0.119785	0.081421	0.054079	0.133966	-0.052359	0.000353	0.027204	0.092024	0.080009	0.027437	0.146525	0.146525	2.005031	1.302462	0.000000	0.000000	0.000000	0.000000	0.000000	0.000000	0.000000	0.000000	0.000000	0.000000	0.000000	0.000000	0.000000	0.000000	0.000000	0.000000	0.000000	0.000000	0.000000	0.000000	0.000000	0.000000
3.525000	-0.024234	-0.293282	0.119349	0.081625	0.054412	0.133351	-0.052268	-0.000043	0.027175	0.092471	0.080348	0.027437	0.146525	0.146525	1.994874	1.302770	0.000000	0.000000	0.000000	0.000000	0.000000	0.000000	0.000000	0.000000	0.000000	0.000000	0.000000	0.000000	0.000000	0.000000	0.000000	0.000000	0.000000	0.000000	0.000000	0.000000	0.000000	0.000000
3.530000	-0.024248	-0.292624	0.118905	0.081831	0.054743	0.132750	-0.052158	-0.000405	0.027149	0.092910	0.080686	0.027437	0.146525	0.146525	1.984724	1.303076	0.000000	0.000000	0.000000	0.000000	0.000000	0.000000	0.000000	0.000000	0.000000	0.000000	0.000000	0.000000	0.000000	0.000000	0.000000	0.000000	0.000000	0.000000	0.000000	0.000000	0.000000	0.000000
3.535000	-0.024264	-0.291966	0.118455	0.082038	0.055072	0.132165	-0.052028	-0.000733	0.027124	0.093341	0.081024	0.027437	0.146525	0.146525	1.974589	1.303377	0.000000	0.000000	0.000000	0.000000	0.000000	0.000000	0.000000	0.000000	0.000000	0.000000	0.000000	0.000000	0.000000	0.000000	0.000000	0.000000	0.000000	0.000000	0.000000	0.000000	0.000000	0.000000
3.540000	-0.024281	-0.291309	0.117999	0.082247	0.055400	0.131595	-0.051881	-0.001028	0.027101	0.093764	0.081361	0.027437	0.146525	0.146525	1.964476	1.303676	0.000000	0.000000	0.000000	0.000000	0.000000	0.000000	0.000000	0.000000	0.000000	0.000000	0.000000	0.000000	0.000000	0.000000	0.000000	0.000000	0.000000	0.000000	0.000000	0.000000	0.000000	0.000000
3.545000	-0.024300	-0.290654	0.117539	0.082457	0.055727	0.131041	-0.051717	-0.001287	0.027079	0.094178	0.081696	0.027437	0.146525	0.146525	1.954391	1.303970	0.000000	0.000000	0.000000	0.000000	0.000000	0.000000	0.000000	0.000000	0.000000	0.000000	0.000000	0.000000	0.000000	0.000000	0.000000	0.000000	0.000000	0.000000	0.000000	0.000000	0.000000	0.000000
3.550000	-0.024319	-0.290002	0.117076	0.082670	0.056052	0.130503	-0.051536	-0.001512	0.027057	0.094585	0.082031	0.027437	0.146525	0.146525	1.944340	1.304260	0.000000	0.000000	0.000000	0.000000	0.000000	0.000000	0.000000	0.000000	0.000000	0.000000	0.000000	0.000000	0.000000	0.000000	0.000000	0.000000	0.000000	0.000000	0.000000	0.000000	0.000000	0.000000
3.555000	-0.024341	-0.289353	0.116610	0.082884	0.056375	0.129982	-0.051340	-0.001703	0.027035	0.094983	0.082364	0.027437	0.146525	0.146525	1.934330	1.304547	0.000000	0.000000	0.000000	0.000000	0.000000	0.000000	0.000000	0.000000	0.000000	0.000000	0.000000	0.000000	0.000000	0.000000	0.000000	0.000000	0.000000	0.000000	0.000000	0.000000	0.000000	0.000000
3.560000	-0.024363	-0.288710	0.116142	0.083100	0.056696	0.129479	-0.051129	-0.001859	0.027014	0.095373	0.082695	0.027437	0.146525	0.146525	1.924367	1.304828	0.000000	0.000000	0.000000	0.000000	0.000000	0.000000	0.000000	0.000000	0.000000	0.000000	0.000000	0.000000	0.000000	0.000000	0.000000	0.000000	0.000000	0.000000	0.000000	0.000000	0.000000	0.000000
3.565000	-0.024387	-0.288073	0.115672	0.083318	0.057017	0.128992	-0.050904	-0.001981	0.026992	0.095755	0.083025	0.027437	0.146525	0.146525	1.914456	1.305106	0.000000	0.000000	0.000000	0.000000	0.000000	0.000000	0.000000	0.000000	0.000000	0.000000	0.000000	0.000000	0.000000	0.000000	0.000000	0.000000	0.000000	0.000000	0.000000	0.000000	0.000000	0.000000
3.570000	-0.024413	-0.287442	0.115203	0.083538	0.057335	0.128523	-0.050666	-0.002069	0.026969	0.096128	0.083354	0.027437	0.146525	0.146525	1.904603	1.305379	0.000000	0.000000	0.000000	0.000000	0.000000	0.000000	0.000000	0.000000	0.000000	0.000000	0.000000	0.000000	0.000000	0.000000	0.000000	0.000000	0.000000	0.000000	0.000000	0.000000	0.000000	0.000000
3.575000	-0.024440	-0.286818	0.114734	0.083760	0.057652	0.128071	-0.050416	-0.002123	0.026945	0.096494	0.083680	0.027437	0.146525	0.146525	1.894814	1.305648	0.000000	0.000000	0.000000	0.000000	0.000000	0.000000	0.000000	0.000000	0.000000	0.000000	0.000000	0.000000	0.000000	0.000000	0.000000	0.000000	0.000000	0.000000	0.000000	0.000000	0.000000	0.000000
3.580000	-0.024469	-0.286203	0.114266	0.083985	0.057968	0.127637	-0.050155	-0.002144	0.026919	0.096851	0.084005	0.027437	0.146525	0.146525	1.885094	1.305911	0.000000	0.000000	0.000000	0.000000	0.000000	0.000000	0.000000	0.000000	0.000000	0.000000	0.000000	0.000000	0.000000	0.000000	0.000000	0.000000	0.000000	0.000000	0.000000	0.000000	0.000000	0.000000
3.585000	-0.024499	-0.285595	0.113800	0.084211	0.058282	0.127221	-0.049883	-0.002132	0.026892	0.097201	0.084328	0.027437	0.146525	0.146525	1.875448	1.306170	0.000000	0.000000	0.000000	0.000000	0.000000	0.000000	0.000000	0.000000	0.000000	0.000000	0.000000	0.000000	0.000000	0.000000	0.000000	0.000000	0.000000	0.000000	0.000000	0.000000	0.000000	0.000000
3.590000	-0.024531	-0.284997	0.113336	0.084439	0.058594	0.126822	-0.049602	-0.002088	0.026863	0.097543	0.084649	0.027437	0.146525	0.146525	1.865880	1.306424	0.000000	0.000000	0.000000	0.000000	0.000000	0.000000	0.000000	0.000000	0.000000	0.000000	0.000000	0.000000	0.000000	0.000000	0.000000	0.000000	0.000000	0.000000	0.000000	0.000000	0.000000	0.000000
3.595000	-0.024564	-0.284409	0.112874	0.084669	0.058905	0.126440	-0.049311	-0.002013	0.026832	0.097877	0.084967	0.027437	0.146525	0.146525	1.856395	1.306672	0.000000	0.000000	0.000000	0.000000	0.000000	0.000000	0.000000	0.000000	0.000000	0.000000	0.000000	0.000000	0.000000	0.000000	0.000000	0.000000	0.000000	0.000000	0.000000	0.000000	0.000000	0.000000
